<?xml version="1.0" encoding="UTF-8" standalone="no"?>
<!-- Creator: CorelDRAW -->

<svg
   xml:space="preserve"
   width="40.7787mm"
   height="59.4025mm"
   version="1.1"
   style="shape-rendering:geometricPrecision; text-rendering:geometricPrecision; image-rendering:optimizeQuality; fill-rule:evenodd; clip-rule:evenodd"
   viewBox="0 0 472.15 687.79"
   id="svg4"
   sodipodi:docname="icon.svg"
   inkscape:version="1.4 (86a8ad7, 2024-10-11)"
   xmlns:inkscape="http://www.inkscape.org/namespaces/inkscape"
   xmlns:sodipodi="http://sodipodi.sourceforge.net/DTD/sodipodi-0.dtd"
   xmlns="http://www.w3.org/2000/svg"
   xmlns:svg="http://www.w3.org/2000/svg"><sodipodi:namedview
   id="namedview4"
   pagecolor="#ffffff"
   bordercolor="#000000"
   borderopacity="0.25"
   inkscape:showpageshadow="2"
   inkscape:pageopacity="0.0"
   inkscape:pagecheckerboard="0"
   inkscape:deskcolor="#d1d1d1"
   inkscape:document-units="mm"
   inkscape:zoom="2.8728799"
   inkscape:cx="76.926292"
   inkscape:cy="112.25669"
   inkscape:window-width="1600"
   inkscape:window-height="847"
   inkscape:window-x="-8"
   inkscape:window-y="-8"
   inkscape:window-maximized="1"
   inkscape:current-layer="Camada_x0020_1" />
 <defs
   id="defs1">
  <style
   type="text/css"
   id="style1">
   <![CDATA[
    .fil2 {fill:#008AE0}
    .fil0 {fill:#0DAEFF}
    .fil1 {fill:#169CF0}
   ]]>
  </style>
 </defs>
 <g
   id="Camada_x0020_1"
   inkscape:label="Camada 1">
  <metadata
   id="CorelCorpID_0Corel-Layer" />
  <g
   id="_2348229272816">
   <path
   class="fil0"
   d="M34.64 171.71l90 50.86c1.55,0.88 2.82,3.27 2.82,5.31l0 57.76 -40.17 69.82 40.17 0 0 30.22 0 84.45c0,24.63 -15.28,36.15 -33.95,25.6l-90 -50.86c-1.55,-0.88 -2.82,-3.26 -2.82,-5.31l0 -71.35 0 -170.89c0,-24.63 15.28,-36.15 33.95,-25.6z"
   id="path1" />
   <path
   class="fil1"
   d="M194.71 88.46l91 51.9 0 49.15 -40.02 69.55 40.02 0 0 129.44 0 170.83c0,26.07 -16.1,38.22 -35.76,27l-91 -51.9 0 -145.94 0 -33.05 39.41 0 -39.41 -69.57 0 -170.42c0,-26.07 16.09,-38.22 35.76,-27z"
   id="path2" />
   <path
   class="fil2"
   d="M351.39 4.11l92.58 53.88 0 292.21 0 120.81c0,25.16 -15.38,36.8 -34.18,25.86l-92.58 -53.88 0 -109.42 0 -74.51 39.57 0 -39.57 -69.84 0 -159.25c0,-25.16 15.38,-36.8 34.18,-25.86z"
   id="path3" />
   <path
   class="fil2"
   d="M-0 484.52l263.83 152.32 93.85 -52.93 -24.2 -41.84 138.66 0 -69.59 119.45 -23.78 -41.12 -116.07 67.39 -248.86 -145.55c-7.24,-4.53 -12.18,-10.14 -13.41,-17.47l-0.45 -40.24z"
   id="path4" />
  </g>
 </g>
</svg>
