<?xml version="1.0" encoding="UTF-8"?>
<!DOCTYPE svg PUBLIC "-//W3C//DTD SVG 1.1//EN" "http://www.w3.org/Graphics/SVG/1.1/DTD/svg11.dtd">
<!-- Creator: CorelDRAW -->
<svg xmlns="http://www.w3.org/2000/svg" xml:space="preserve" width="312.65mm" height="59.4025mm" version="1.1" style="shape-rendering:geometricPrecision; text-rendering:geometricPrecision; image-rendering:optimizeQuality; fill-rule:evenodd; clip-rule:evenodd"
viewBox="0 0 29713.56 5645.48"
 xmlns:xlink="http://www.w3.org/1999/xlink"
 xmlns:xodm="http://www.corel.com/coreldraw/odm/2003">
 <defs>
  <style type="text/css">
   <![CDATA[
    .fil2 {fill:#006EB3}
    .fil3 {fill:#006FB5}
    .fil1 {fill:#0086DB}
    .fil0 {fill:#0093F1}
    .fil4 {fill:white;fill-rule:nonzero}
   ]]>
  </style>
 </defs>
 <g id="Camada_x0020_1">
  <metadata id="CorelCorpID_0Corel-Layer"/>
  <g id="_3025101345280">
   <path class="fil0" d="M284.32 1409.42l738.71 417.43c12.73,7.18 23.13,26.82 23.13,43.58l0 474.11 -329.73 573.07 329.73 0 0 248.06 0 693.15c0,202.16 -125.4,296.76 -278.64,210.16l-738.72 -417.43c-12.71,-7.18 -23.13,-26.79 -23.13,-43.57l0 -585.66 0 -1402.73c0,-202.18 125.4,-296.75 278.65,-210.16z"/>
   <path class="fil1" d="M1598.24 726.11l746.95 425.99 0 403.45 -328.48 570.88 328.48 0 0 1062.45 0 1402.24c0,213.95 -132.11,313.68 -293.54,221.62l-746.95 -425.99 0 -1197.88 0 -271.27 323.52 0 -323.52 -571.03 0 -1398.87c0,-213.97 132.09,-313.68 293.54,-221.61z"/>
   <path class="fil2" d="M2884.26 33.78l759.95 442.26 0 2398.5 0 991.64c0,206.54 -126.25,302.08 -280.53,212.29l-759.95 -442.26 0 -898.17 0 -611.6 324.77 0 -324.77 -573.25 0 -1307.13c0,-206.55 126.24,-302.07 280.53,-212.28z"/>
   <path class="fil3" d="M-0 3977.06l2165.58 1250.3 770.38 -434.47 -198.6 -343.45 1138.16 0 -571.22 980.44 -195.17 -337.51 -952.72 553.11 -2042.7 -1194.67c-59.39,-37.2 -99.98,-83.2 -110.06,-143.42l-3.66 -330.33z"/>
  </g>
  <path class="fil4" d="M7903.05 3946.38l-153.76 -1927.93 -19.71 0 -666.3 1908.22 -441.57 0 -666.3 -1908.22 -19.71 0 -153.76 1927.93 -741.21 0 291.75 -3252.65 788.53 0 721.49 1876.68 721.5 -1876.68 788.53 0 291.75 3252.65 -741.21 0zm2550.86 -2022.56l804.3 0 -1588.87 3047.64 -804.3 0 697.84 -1340.5 -958.06 -1707.15 804.3 0 563.79 1036.9 481 -1036.9zm3918.96 -1230.09l0 650.52 -1139.41 0 0 646.6 1052.67 0 0 650.52 -1052.67 0 0 1305 -741.21 0 0 -3252.65 1880.62 0zm421.86 102.51c81.48,-81.48 178.72,-122.22 291.75,-122.22 113.02,0 210.27,40.74 291.75,122.22 81.49,81.49 122.23,178.73 122.23,291.76 0,113.02 -40.74,210.27 -122.23,291.75 -81.48,81.49 -178.73,122.23 -291.75,122.23 -113.03,0 -210.27,-40.74 -291.75,-122.23 -81.49,-81.48 -122.23,-178.73 -122.23,-291.75 0,-113.03 40.74,-210.27 122.23,-291.76zm-67.03 1127.59l0 2022.56 697.83 0 0 -2022.56 -697.83 0zm1190.67 2022.56l0 -2022.56 697.83 0 0 212.9 7.89 0c181.36,-181.36 374.55,-272.04 579.56,-272.04 99.88,0 199.1,13.13 297.68,39.42 98.56,26.28 193.18,67.03 283.86,122.22 90.69,55.2 164.27,133.4 220.79,234.58 56.51,101.2 84.76,218.82 84.76,352.87l0 1332.6 -697.84 0 0 -1143.35c0,-105.14 -33.51,-197.13 -100.53,-275.99 -67.03,-78.85 -154.43,-118.27 -262.19,-118.27 -105.14,0 -200.42,40.74 -285.84,122.23 -85.43,81.48 -128.14,172.16 -128.14,272.04l0 1143.35 -697.83 0zm2744.06 -250.36c-189.25,-206.33 -283.88,-459.31 -283.88,-758.94 0,-299.64 94.63,-553.28 283.88,-760.93 189.25,-207.65 429.74,-311.46 721.5,-311.46 268.09,0 488.88,84.1 662.36,252.33l0 -193.19 697.83 0 0 2022.56 -689.95 0 0 -228.67 -7.89 0c-173.47,191.87 -394.26,287.81 -662.36,287.81 -291.76,0 -532.25,-103.16 -721.5,-309.5zm593.36 -1101.95c-90.68,89.36 -136.02,203.7 -136.02,343.01 0,139.31 43.37,252.98 130.11,341.03 86.73,88.05 201.07,132.07 343.01,132.07 136.67,0 249.04,-44.68 337.09,-134.05 88.04,-89.36 132.08,-202.38 132.08,-339.06 0,-139.31 -45.35,-253.65 -136.03,-343.01 -90.69,-89.36 -201.74,-134.05 -333.15,-134.05 -134.05,0 -246.41,44.69 -337.1,134.05zm1961.46 1352.31l0 -2022.56 697.83 0 0 212.9 7.89 0c181.36,-181.36 374.54,-272.04 579.56,-272.04 99.88,0 199.09,13.13 297.67,39.42 98.56,26.28 193.19,67.03 283.87,122.22 90.69,55.2 164.27,133.4 220.78,234.58 56.51,101.2 84.77,218.82 84.77,352.87l0 1332.6 -697.84 0 0 -1143.35c0,-105.14 -33.51,-197.13 -100.54,-275.99 -67.02,-78.85 -154.42,-118.27 -262.18,-118.27 -105.14,0 -200.42,40.74 -285.85,122.23 -85.42,81.48 -128.13,172.16 -128.13,272.04l0 1143.35 -697.83 0zm3682.39 -1510.02c-131.42,0 -244.45,48.63 -339.07,145.87 -94.63,97.25 -141.93,214.22 -141.93,350.9 0,139.31 47.3,257.58 141.93,354.83 94.62,97.25 207.65,145.88 339.07,145.88 63.08,0 122.87,-7.89 179.38,-23.66 56.52,-15.77 97.91,-31.54 124.2,-47.31l35.49 -23.65 236.55 484.94c-18.4,13.14 -44.02,29.58 -76.88,49.29 -32.86,19.71 -107.76,46.64 -224.73,80.82 -116.97,34.17 -242.47,51.25 -376.52,51.25 -297.01,0 -557.88,-104.48 -782.61,-313.43 -224.73,-208.96 -337.1,-459.32 -337.1,-751.07 0,-294.38 112.37,-547.36 337.1,-758.95 224.73,-211.58 485.6,-317.37 782.61,-317.37 134.05,0 257.58,15.77 370.6,47.3 113.02,31.55 193.19,63.09 240.49,94.63l67.03 47.31 -236.55 477.06c-86.74,-63.09 -199.76,-94.63 -339.07,-94.63zm2905.7 595.34l-1466.65 0c0,141.94 46.01,247.07 137.99,315.41 92,68.33 191.87,102.5 299.64,102.5 113.02,0 202.38,-15.11 268.1,-45.33 65.71,-30.23 140.62,-90.03 224.73,-179.39l504.65 252.33c-210.27,352.21 -559.85,528.32 -1048.73,528.32 -304.9,0 -566.42,-104.48 -784.58,-313.43 -218.15,-208.96 -327.23,-460.63 -327.23,-755.01 0,-294.39 109.08,-546.71 327.23,-756.99 218.17,-210.27 479.68,-315.4 784.58,-315.4 320.67,0 581.54,92.65 782.61,277.95 201.08,185.3 301.61,450.11 301.61,794.44 0,47.31 -1.31,78.84 -3.94,94.62zm-1446.93 -386.38l768.81 0c-15.78,-105.13 -57.17,-185.96 -124.2,-242.47 -67.03,-56.51 -153.11,-84.76 -258.25,-84.76 -115.64,0 -207.64,30.22 -275.98,90.68 -68.34,60.45 -105.14,139.31 -110.39,236.56zm2641.55 -780.63c115.65,0 229.98,13.13 343.01,39.42 113.02,26.28 197.13,52.57 252.33,78.85l82.8 39.42 -228.67 457.34c-157.72,-84.1 -307.52,-126.16 -449.46,-126.16 -78.85,0 -134.7,8.54 -167.56,25.63 -32.85,17.08 -49.29,49.28 -49.29,96.59 0,10.52 1.32,21.03 3.94,31.54 2.63,10.51 7.89,20.38 15.78,29.58 7.88,9.2 15.11,17.09 21.68,23.65 6.58,6.58 17.75,13.8 33.51,21.69 15.78,7.89 28.26,13.8 37.46,17.74 9.2,3.94 24.31,9.86 45.33,17.74 21.03,7.89 36.81,13.8 47.32,17.74 10.51,3.94 28.25,9.86 53.22,17.74 24.97,7.88 44.02,13.14 57.17,15.77 81.49,23.65 152.45,49.93 212.89,78.85 60.46,28.91 124.2,68.33 191.23,118.28 67.03,49.93 118.94,113.01 155.74,189.24 36.79,76.22 55.19,162.96 55.19,260.2 0,459.97 -319.35,689.97 -958.05,689.97 -144.56,0 -281.9,-22.34 -412.01,-67.03 -130.11,-44.68 -224.07,-89.36 -281.9,-134.04l-86.73 -70.96 283.87 -477.06c21.02,18.4 48.62,40.09 82.8,65.06 34.17,24.96 95.94,59.13 185.3,102.5 89.36,43.38 166.9,65.05 232.61,65.05 144.56,0 216.85,-48.63 216.85,-145.87 0,-44.68 -18.4,-79.51 -55.2,-104.48 -36.8,-24.97 -99.22,-53.22 -187.27,-84.75 -88.05,-31.55 -157.05,-60.46 -206.98,-86.74 -126.16,-65.71 -226.05,-139.96 -299.64,-222.76 -73.6,-82.8 -110.4,-192.54 -110.4,-329.21 0,-205.02 79.52,-364.69 238.53,-479.03 159.03,-114.33 373.9,-171.5 644.62,-171.5z"/>
 </g>
</svg>
