<?xml version="1.0" encoding="UTF-8"?>
<!DOCTYPE svg PUBLIC "-//W3C//DTD SVG 1.1//EN" "http://www.w3.org/Graphics/SVG/1.1/DTD/svg11.dtd">
<!-- Creator: CorelDRAW -->
<svg xmlns="http://www.w3.org/2000/svg" xml:space="preserve" width="303.364mm" height="59.4025mm" version="1.1" style="shape-rendering:geometricPrecision; text-rendering:geometricPrecision; image-rendering:optimizeQuality; fill-rule:evenodd; clip-rule:evenodd"
viewBox="0 0 26130.18 5116.62"
 xmlns:xlink="http://www.w3.org/1999/xlink"
 xmlns:xodm="http://www.corel.com/coreldraw/odm/2003">
 <defs>
  <style type="text/css">
   <![CDATA[
    .fil2 {fill:#008AE0}
    .fil0 {fill:#0DAEFF}
    .fil1 {fill:#169CF0}
    .fil3 {fill:white;fill-rule:nonzero}
   ]]>
  </style>
 </defs>
 <g id="Camada_x0020_1">
  <metadata id="CorelCorpID_0Corel-Layer"/>
  <path class="fil0" d="M257.68 1277.39l669.51 378.33c11.53,6.51 20.97,24.31 20.97,39.5l0 429.69 -298.84 519.38 298.84 0 0 224.82 0 628.22c0,183.23 -113.65,268.96 -252.54,190.47l-669.52 -378.33c-11.52,-6.51 -20.97,-24.28 -20.97,-39.49l0 -530.8 0 -1271.32c0,-183.24 113.65,-268.95 252.55,-190.47z"/>
  <path class="fil1" d="M1448.52 658.09l676.98 386.08 0 365.66 -297.71 517.4 297.71 0 0 962.92 0 1270.88c0,193.91 -119.74,284.3 -266.04,200.86l-676.98 -386.08 0 -1085.66 0 -245.85 293.21 0 -293.21 -517.53 0 -1267.83c0,-193.92 119.72,-284.3 266.04,-200.85z"/>
  <path class="fil2" d="M2614.07 30.61l688.76 400.83 0 2173.81 0 898.75c0,187.19 -114.42,273.78 -254.25,192.4l-688.76 -400.83 0 -814.03 0 -554.3 294.35 0 -294.35 -519.55 0 -1184.68c0,-187.2 114.41,-273.77 254.25,-192.39z"/>
  <path class="fil2" d="M-0 3604.49l1962.71 1133.17 698.21 -393.77 -180 -311.27 1031.54 0 -517.7 888.59 -176.89 -305.89 -863.47 501.3 -1851.34 -1082.76c-53.83,-33.71 -90.61,-75.4 -99.75,-129.99l-3.32 -299.39z"/>
  <path class="fil3" d="M6977.44 3545.03l-135.02 -1693.01 -17.3 0 -585.11 1675.69 -387.76 0 -585.11 -1675.69 -17.31 0 -135.02 1693.01 -650.89 0 256.2 -2856.29 692.44 0 633.57 1647.99 633.58 -1647.99 692.43 0 256.21 2856.29 -650.89 0zm2240.03 -1776.09l706.28 0 -1395.25 2676.25 -706.28 0 612.8 -1177.14 -841.3 -1499.12 706.28 0 495.09 910.55 422.39 -910.55zm3441.39 -1080.2l0 571.25 -1000.57 0 0 567.8 924.4 0 0 571.25 -924.4 0 0 1145.98 -650.89 0 0 -2856.29 1651.45 0zm370.46 90.02c71.55,-71.55 156.95,-107.33 256.2,-107.33 99.25,0 184.65,35.78 256.2,107.33 71.55,71.54 107.33,156.95 107.33,256.2 0,99.24 -35.78,184.65 -107.33,256.2 -71.55,71.55 -156.95,107.32 -256.2,107.32 -99.24,0 -184.65,-35.77 -256.2,-107.32 -71.55,-71.55 -107.32,-156.95 -107.32,-256.2 0,-99.25 35.77,-184.66 107.32,-256.2zm-58.86 990.18l0 1776.09 612.81 0 0 -1776.09 -612.81 0zm1045.57 1776.09l0 -1776.09 612.81 0 0 186.96 6.93 0c159.25,-159.26 328.91,-238.89 508.94,-238.89 87.71,0 174.84,11.54 261.39,34.63 86.56,23.08 169.64,58.86 249.27,107.32 79.63,48.48 144.26,117.14 193.88,206 49.63,88.87 74.44,192.15 74.44,309.87l0 1170.21 -612.81 0 0 -1004.03c0,-92.33 -29.42,-173.11 -88.28,-242.35 -58.86,-69.24 -135.6,-103.87 -230.24,-103.87 -92.32,0 -175.99,35.78 -251.01,107.33 -75.01,71.55 -112.52,151.18 -112.52,238.89l0 1004.03 -612.81 0zm2409.67 -219.85c-166.18,-181.18 -249.27,-403.34 -249.27,-666.47 0,-263.12 83.09,-485.85 249.27,-668.2 166.19,-182.34 377.37,-273.51 633.58,-273.51 235.42,0 429.3,73.86 581.64,221.58l0 -169.64 612.81 0 0 1776.09 -605.88 0 0 -200.81 -6.93 0c-152.34,168.49 -346.22,252.74 -581.64,252.74 -256.21,0 -467.39,-90.59 -633.58,-271.78zm521.06 -967.67c-79.63,78.48 -119.44,178.88 -119.44,301.2 0,122.33 38.08,222.16 114.25,299.48 76.17,77.32 176.58,115.98 301.21,115.98 120.02,0 218.69,-39.23 296.01,-117.71 77.32,-78.48 115.99,-177.72 115.99,-297.75 0,-122.33 -39.82,-222.73 -119.45,-301.2 -79.62,-78.48 -177.14,-117.71 -292.55,-117.71 -117.71,0 -216.39,39.23 -296.02,117.71zm1722.43 1187.52l0 -1776.09 612.81 0 0 186.96 6.93 0c159.25,-159.26 328.91,-238.89 508.94,-238.89 87.71,0 174.84,11.54 261.39,34.63 86.56,23.08 169.64,58.86 249.27,107.32 79.63,48.48 144.26,117.14 193.88,206 49.63,88.87 74.44,192.15 74.44,309.87l0 1170.21 -612.81 0 0 -1004.03c0,-92.33 -29.42,-173.11 -88.28,-242.35 -58.86,-69.24 -135.6,-103.87 -230.24,-103.87 -92.32,0 -175.99,35.78 -251.01,107.33 -75.01,71.55 -112.52,151.18 -112.52,238.89l0 1004.03 -612.81 0zm3233.67 -1326.01c-115.41,0 -214.66,42.7 -297.75,128.1 -83.09,85.4 -124.64,188.11 -124.64,308.13 0,122.34 41.54,226.2 124.64,311.6 83.09,85.39 182.34,128.1 297.75,128.1 55.39,0 107.9,-6.93 157.52,-20.78 49.63,-13.85 85.98,-27.7 109.06,-41.54l31.15 -20.78 207.73 425.85c-16.16,11.53 -38.66,25.96 -67.51,43.27 -28.85,17.31 -94.63,40.97 -197.34,70.98 -102.71,30 -212.93,45.01 -330.64,45.01 -260.82,0 -489.9,-91.74 -687.24,-275.24 -197.34,-183.49 -296.01,-403.34 -296.01,-659.54 0,-258.51 98.67,-480.67 296.01,-666.47 197.34,-185.8 426.43,-278.71 687.24,-278.71 117.71,0 226.2,13.85 325.44,41.55 99.25,27.69 169.65,55.39 211.19,83.09l58.86 41.54 -207.73 418.93c-76.17,-55.39 -175.41,-83.09 -297.74,-83.09zm2551.61 522.79l-1287.93 0c0,124.64 40.4,216.96 121.17,276.98 80.79,60.01 168.5,90.02 263.12,90.02 99.25,0 177.73,-13.27 235.43,-39.82 57.7,-26.54 123.48,-79.05 197.34,-157.52l443.15 221.57c-184.65,309.29 -491.62,463.93 -920.94,463.93 -267.74,0 -497.39,-91.74 -688.97,-275.24 -191.57,-183.49 -287.35,-404.5 -287.35,-663.01 0,-258.51 95.78,-480.08 287.35,-664.74 191.58,-184.65 421.23,-276.98 688.97,-276.98 281.59,0 510.67,81.36 687.24,244.09 176.57,162.72 264.86,395.26 264.86,697.62 0,41.55 -1.15,69.24 -3.46,83.09zm-1270.62 -339.29l675.12 0c-13.85,-92.32 -50.2,-163.29 -109.06,-212.93 -58.86,-49.62 -134.45,-74.44 -226.77,-74.44 -101.56,0 -182.34,26.55 -242.35,79.63 -60.02,53.08 -92.33,122.33 -96.94,207.73zm2319.65 -685.51c101.56,0 201.96,11.54 301.21,34.63 99.24,23.08 173.11,46.16 221.57,69.24l72.71 34.62 -200.81 401.61c-138.49,-73.86 -270.05,-110.79 -394.69,-110.79 -69.24,0 -118.29,7.5 -147.14,22.51 -28.85,15 -43.27,43.27 -43.27,84.82 0,9.23 1.15,18.47 3.46,27.7 2.31,9.23 6.93,17.89 13.85,25.97 6.93,8.07 13.27,15 19.04,20.77 5.77,5.77 15.57,12.12 29.42,19.04 13.85,6.93 24.82,12.12 32.89,15.58 8.08,3.46 21.34,8.66 39.81,15.58 18.47,6.92 32.32,12.11 41.54,15.57 9.23,3.46 24.82,8.66 46.75,15.58 21.92,6.93 38.66,11.54 50.2,13.85 71.55,20.78 133.87,43.85 186.96,69.24 53.08,25.38 109.06,60.01 167.92,103.86 58.86,43.86 104.44,99.25 136.76,166.19 32.31,66.94 48.47,143.1 48.47,228.5 0,403.92 -280.44,605.88 -841.3,605.88 -126.95,0 -247.55,-19.61 -361.8,-58.86 -114.25,-39.23 -196.77,-78.48 -247.54,-117.71l-76.17 -62.32 249.27 -418.93c18.47,16.16 42.7,35.2 72.71,57.12 30.01,21.93 84.25,51.93 162.73,90.02 78.47,38.08 146.56,57.12 204.26,57.12 126.95,0 190.43,-42.7 190.43,-128.1 0,-39.23 -16.16,-69.82 -48.48,-91.75 -32.31,-21.92 -87.13,-46.74 -164.45,-74.44 -77.32,-27.69 -137.91,-53.08 -181.76,-76.16 -110.8,-57.71 -198.5,-122.91 -263.13,-195.61 -64.63,-72.71 -96.94,-169.07 -96.94,-289.09 0,-180.03 69.82,-320.25 209.46,-420.66 139.64,-100.4 328.33,-150.61 566.06,-150.61z"/>
 </g>
</svg>
